<?xml version="1.0" standalone="no"?><!DOCTYPE svg PUBLIC "-//W3C//DTD SVG 1.1//EN" "http://www.w3.org/Graphics/SVG/1.1/DTD/svg11.dtd"><svg t="1593275158602" class="icon" viewBox="0 0 1024 1024" version="1.1" xmlns="http://www.w3.org/2000/svg" p-id="1370" xmlns:xlink="http://www.w3.org/1999/xlink" width="200" height="200"><defs><style type="text/css"></style></defs><path d="M505.34 512.99m-456.01 0a456.01 456.01 0 1 0 912.02 0 456.01 456.01 0 1 0-912.02 0Z" fill="#646C77" p-id="1371"></path><path d="M619.34 512.99c0-115.56 51.6-219.07 132.99-288.77-66.41-56.89-152.69-91.27-246.99-91.27-209.89 0-380.03 170.14-380.03 380.03 0 209.86 170.14 380 380.03 380 94.3 0 180.58-34.37 246.99-91.24-81.39-69.68-132.99-173.19-132.99-288.75z" fill="#FECD57" p-id="1372"></path><path d="M201.32 512.99c0-197.03 149.94-359.02 341.96-378.14-12.5-1.22-25.13-1.89-37.94-1.89-209.89 0-380.03 170.14-380.03 380.03 0 209.86 170.14 380 380.03 380 12.8 0 25.44-0.64 37.94-1.89C351.26 872 201.32 710.02 201.32 512.99z" fill="#F5BA45" p-id="1373"></path></svg>